<svg width="100" height="19" viewBox="0 0 100 19" fill="none" xmlns="http://www.w3.org/2000/svg">
<path d="M0.646552 14.6728C0.215517 13.7775 0 12.7247 0 11.5144C0 10.3041 0.206537 9.23473 0.619612 8.30628C1.05065 7.36126 1.63434 6.54887 2.37069 5.86911C3.93319 4.45986 5.8908 3.75524 8.24353 3.75524C10.704 3.75524 12.7335 4.27749 14.3319 5.32199C16.1279 6.51571 17.0259 8.22339 17.0259 10.445C17.0259 13.1972 16.3344 15.2282 14.9515 16.538C13.5866 17.8477 11.4494 18.5026 8.53987 18.5026C4.49892 18.5026 1.86782 17.226 0.646552 14.6728ZM2.20905 11.017C2.20905 14.9298 4.34626 16.8861 8.62069 16.8861C10.722 16.8861 12.4282 16.3058 13.7392 15.1453C15.0503 14.0013 15.7058 12.5009 15.7058 10.644C15.7058 8.90314 14.9246 7.57679 13.3621 6.66492C12.033 5.86911 10.3538 5.4712 8.32435 5.4712C6.70797 5.4712 5.28017 6.01003 4.04095 7.0877C2.81968 8.16536 2.20905 9.47513 2.20905 11.017Z" fill="#C62100"/>
<path d="M29.1218 13.4045C29.1218 11.4315 29.005 9.9808 28.7716 9.05236C28.9152 8.80367 28.6997 8.67932 28.125 8.67932C27.5144 8.67932 26.7241 8.82024 25.7543 9.10209C24.7845 9.38394 23.9943 9.66579 23.3836 9.94764C21.9289 10.5942 21.1207 11.2243 20.9591 11.8377V18.6021H19.1541C18.9206 18.0384 18.8039 16.4551 18.8039 13.8521C18.8039 11.531 18.8488 9.8233 18.9386 8.72906C19.0463 7.63482 19.1272 7.01309 19.181 6.86387C19.648 6.58202 20.0251 6.4411 20.3125 6.4411C20.7615 6.4411 20.986 6.93019 20.986 7.90838C20.986 8.2897 20.9591 8.66274 20.9052 9.02749C20.8693 9.37565 20.8513 9.61606 20.8513 9.74869C23.7608 7.77574 26.0147 6.78927 27.6131 6.78927C29.4271 6.78927 30.4598 8.14049 30.7112 10.8429C30.819 11.788 30.8728 13.0977 30.8728 14.7723L30.8459 16.7369C30.8459 17.4664 30.8639 18.171 30.8998 18.8508C30.7202 18.9503 30.5765 19 30.4688 19C30.4149 18.9834 30.2981 18.9586 30.1185 18.9254C29.9389 18.8922 29.7055 18.8674 29.4181 18.8508C29.2385 18.1876 29.1397 17.5161 29.1218 16.8364C29.1038 16.1401 29.0948 15.5017 29.0948 14.9215L29.1218 13.4045Z" fill="#C62100"/>
<path d="M52.236 14.7225C53.134 12.0366 54.1756 7.12914 55.361 0C56.4925 0 57.0851 0.323298 57.139 0.969895C57.157 1.16885 57.1659 1.30977 57.1659 1.39267C57.1839 1.47557 57.157 1.76571 57.0851 2.26309C57.0133 2.74389 56.9055 3.42365 56.7619 4.30236C56.6361 5.18106 56.4745 6.2007 56.2769 7.36126C56.0794 8.52182 55.8549 9.73211 55.6034 10.9921C54.9928 13.9599 54.3642 16.4634 53.7177 18.5026C53.0711 18.9171 52.5682 18.9834 52.2091 18.7016C52.0474 18.5524 51.9037 18.3534 51.778 18.1047C51.6523 17.8394 51.5086 17.541 51.347 17.2094C51.1135 16.9276 50.6825 16.1815 50.0539 14.9712C49.4253 13.7609 48.9134 12.7993 48.5183 12.0864C48.1412 11.3735 47.773 10.7103 47.4138 10.0969C46.5876 8.72077 45.8962 7.91667 45.3394 7.68455C44.6929 8.613 43.5435 11.1579 41.8912 15.3194C41.6038 16.0489 41.3434 16.7286 41.1099 17.3586C40.8764 17.9721 40.6789 18.4695 40.5172 18.8508L38.847 18.7762L32.1121 4.40183C32.0761 4.31894 32.0582 4.23604 32.0582 4.15314C32.0582 4.07024 32.0851 3.98735 32.139 3.90445C32.2108 3.82155 32.3276 3.74695 32.4892 3.68063C32.7945 3.58115 33.0999 3.53141 33.4052 3.53141C33.7105 3.53141 33.926 3.58944 34.0517 3.7055C34.1954 3.80497 34.3032 3.93761 34.375 4.1034C34.4648 4.2692 34.5366 4.45157 34.5905 4.65052C34.6444 4.84948 34.7432 5.10646 34.8869 5.42147C35.0485 5.73647 35.273 6.2007 35.5603 6.81414C35.8657 7.42757 36.1889 8.07417 36.5302 8.75393C36.8714 9.43368 37.2126 10.1134 37.5539 10.7932C37.8951 11.4564 38.2184 12.0698 38.5237 12.6335C39.1703 13.877 39.5744 14.5733 39.736 14.7225C41.8193 9.9808 43.1034 7.17059 43.5884 6.29188C44.0733 5.3966 44.3786 4.84948 44.5043 4.65052C44.7019 4.36867 44.8545 4.22775 44.9623 4.22775C45.7346 4.22775 47.0366 5.81937 48.8685 9.00262C49.3714 9.84817 49.8384 10.6606 50.2694 11.4398C51.329 13.3298 51.9846 14.4241 52.236 14.7225Z" fill="#C62100"/>
<path d="M68.9386 14.7225C67.5916 16.6789 65.7956 17.8892 63.5506 18.3534C63.0298 18.4529 62.5539 18.5026 62.1228 18.5026C61.7098 18.5026 61.3596 18.5026 61.0722 18.5026C60.8028 18.486 60.4975 18.4446 60.1562 18.3783C59.815 18.312 59.5007 18.2042 59.2134 18.055C58.5489 17.7068 58.2166 17.2177 58.2166 16.5877C58.1448 16.2893 58.1088 15.9577 58.1088 15.5929C58.1088 15.2116 58.1986 14.7142 58.3782 14.1008C58.5578 13.4873 58.8811 12.8242 59.3481 12.1113C59.833 11.3983 60.4167 10.7435 61.0991 10.1466C62.518 8.88656 64.0535 8.07417 65.7058 7.70942C66.1907 7.60995 66.6307 7.56021 67.0259 7.56021C67.4389 7.56021 67.8071 7.58508 68.1304 7.63482C69.1721 7.63482 69.8725 8.2897 70.2317 9.59948C70.4652 10.4284 70.5999 11.589 70.6358 13.0812C70.6897 14.5567 70.7346 15.7007 70.7705 16.5131C70.8244 17.3089 70.9411 18.0384 71.1207 18.7016H69.5312C69.4594 18.2539 69.4055 17.856 69.3696 17.5079C69.3337 17.1597 69.2978 16.8364 69.2619 16.538C69.1721 15.8416 69.0643 15.2365 68.9386 14.7225ZM68.8308 10.8678C68.8308 9.9062 68.319 9.42539 67.2953 9.42539C67.1695 9.40881 67.0438 9.40052 66.9181 9.40052C65.607 9.40052 64.2241 9.9808 62.7694 11.1414C62.0869 11.6719 61.5032 12.2688 61.0183 12.9319C60.2999 13.877 59.9407 14.7225 59.9407 15.4686C59.9407 16.4468 60.5514 17.0271 61.7726 17.2094C63.389 17.1763 64.9335 16.4965 66.4062 15.1702C67.0348 14.5899 67.5557 13.9599 67.9688 13.2801C68.5435 12.3682 68.8308 11.5641 68.8308 10.8678Z" fill="#C62100"/>
<path d="M72.6293 9.22644C72.5934 9.14354 72.5754 9.05236 72.5754 8.95288C72.5754 8.83682 72.6203 8.68761 72.7101 8.50524C72.7999 8.32286 72.9256 8.16536 73.0873 8.03272C73.2669 7.90009 73.4555 7.84206 73.653 7.85864C73.8685 7.85864 74.0392 7.97469 74.1649 8.20681L78.6907 15.966C78.8344 15.767 79.0589 15.4023 79.3642 14.8717C79.6875 14.3246 80.0467 13.7112 80.4418 13.0314C80.8549 12.3517 81.2769 11.647 81.708 10.9175C82.157 10.1715 82.57 9.49171 82.9472 8.87827C83.8093 7.46902 84.3211 6.7644 84.4828 6.7644C84.8599 6.7644 85.1293 6.89703 85.2909 7.1623C85.4705 7.41099 85.5603 7.60166 85.5603 7.73429C85.5603 7.86693 85.5603 7.95812 85.5603 8.00785C84.5546 10.0305 83.6207 11.8957 82.7586 13.6034C81.9145 15.3111 81.3488 16.4219 81.0614 16.9359C80.792 17.4332 80.5496 17.8312 80.3341 18.1296C79.9569 18.6435 79.5887 18.9005 79.2295 18.9005C78.8703 18.9005 78.4573 18.6435 77.9903 18.1296C77.5233 17.599 76.9935 16.8944 76.4009 16.0157C75.3592 14.4241 74.102 12.161 72.6293 9.22644Z" fill="#C62100"/>
<path d="M92.1875 17.1099C93.768 17.1099 96.1476 16.4468 99.3265 15.1204C99.5241 15.1204 99.6857 15.1867 99.8114 15.3194C99.9371 15.4354 100 15.5764 100 15.7421C99.2816 16.8695 97.9077 17.7483 95.8782 18.3783C93.8488 19.0083 91.954 19.1161 90.194 18.7016C88.2004 18.2208 86.9881 17.1846 86.5571 15.5929C86.5212 15.2779 86.5032 14.8551 86.5032 14.3246C86.5032 13.7941 86.6469 13.0977 86.9343 12.2356C87.2396 11.3569 87.7514 10.5279 88.4698 9.74869C89.1882 8.96946 90.0323 8.35602 91.0022 7.90838C91.972 7.46073 93.0047 7.23691 94.1002 7.23691C95.1419 7.23691 96.3093 7.5685 97.6024 8.23168C98.213 8.54668 98.6979 8.90314 99.0571 9.30105C99.4163 9.69895 99.5959 10.1051 99.5959 10.5196C99.5959 10.6357 99.5869 10.7517 99.569 10.8678C99.533 11.8791 99.0032 12.5175 97.9795 12.7827C97.5305 12.8988 97.0097 12.9568 96.417 12.9568L92.5377 12.8076C91.2446 12.8076 90.2568 13.0646 89.5744 13.5785C89.1792 13.8604 88.9009 14.2832 88.7392 14.8469C89.1882 16.3556 90.3376 17.1099 92.1875 17.1099ZM96.9828 9.42539C96.5876 9.16012 96.1746 8.96946 95.7435 8.8534C95.3125 8.73735 94.9533 8.67932 94.6659 8.67932C94.3786 8.67932 93.9116 8.77051 93.2651 8.95288C92.6185 9.11867 92.0438 9.30934 91.5409 9.52487C90.3017 10.0554 89.6821 10.6108 89.6821 11.1911C91.1189 11.3072 92.1965 11.3652 92.9149 11.3652C94.9084 11.3652 96.2554 11.2077 96.9558 10.8927C97.3869 10.7269 97.6024 10.5196 97.6024 10.2709C97.6024 9.97251 97.3958 9.69066 96.9828 9.42539Z" fill="#C62100"/>
</svg>
