<svg width="115" height="35" viewBox="0 0 115 35" fill="none" xmlns="http://www.w3.org/2000/svg">
<path d="M45.0462 9.04314C45.0462 9.04314 42.9345 8.63399 42.9226 5.87604C42.9105 3.11863 45.6747 3.0212 45.6433 3.00849C45.6116 2.99603 46.2702 2.99035 46.4967 3.04206C47.0846 3.17465 47.3073 3.2082 47.3073 3.2082L47.9167 3.31833L48.3683 3.38463L48.9047 3.46176L49.4209 3.50723L50.0717 3.59436L50.5885 3.62763L51.4499 3.68392L52.1443 3.72747L52.7752 3.75022C52.7752 3.75022 56.4562 3.77321 58.696 3.21876C61.3654 2.55633 60.6262 5.83112 59.327 6.28599C59.3173 6.28802 59.2308 19.7521 59.2308 19.7521L59.3589 19.9202L59.5045 20.053L59.6625 20.1865L59.8207 20.3293C59.8953 20.4065 60.2324 20.7382 60.2109 21.5254C60.1895 22.3126 59.7258 22.9771 59.1894 22.9439C58.6536 22.9103 57.6753 22.6984 57.6753 22.6984L57.36 22.6551L57.0248 22.6446H56.7288L56.425 22.6551C56.425 22.6551 55.2493 22.6835 54.7449 22.8635C54.5961 22.9171 54.3726 22.9414 54.3726 22.9414L54.0908 22.9311L53.8897 22.8873C53.8897 22.8873 53.1421 22.601 53.1325 21.4818C53.1225 20.3623 54.5005 19.8309 54.5005 19.8309V17.7375H51.3028V19.9199C51.3028 19.9199 52.3992 20.2625 52.3242 21.3589C52.249 22.4557 51.6557 22.9181 51.3557 22.9747C51.0505 23.0304 51.0089 22.9767 51.0089 22.9767L50.6401 22.8647L50.23 22.7773L49.9049 22.711C49.9049 22.711 48.4929 22.4036 47.3495 22.688L47.0656 22.744L46.8227 22.7876L46.6532 22.8211L46.4244 22.8541H46.2238L46.0027 22.8314C46.0027 22.8314 45.2356 22.744 45.2356 21.6478C45.2356 20.5511 46.5708 19.8513 46.5708 19.841C46.5901 19.3907 46.5823 17.4944 46.5823 17.4944L46.2546 17.4489C46.2546 17.4489 41.6726 17.5255 41.5028 12.7307C41.3884 9.4957 44.8155 9.12416 44.8254 9.122C44.9098 9.09951 45.0462 9.04326 45.0462 9.04326V9.04314ZM54.5322 7.74763C54.5322 7.74763 51.1521 7.92 51.1762 13.861C51.1762 13.8732 54.5558 13.861 54.5558 13.861L54.5322 7.74763H54.5322Z" fill="black"/>
<path d="M31.1814 3.99536C32.6429 4.01288 34.4991 3.50937 34.4991 3.50937L35.3682 3.33769L35.811 3.27664L36.3669 3.23093C36.3669 3.23093 41.8838 2.68824 41.8738 9.24172C41.8697 12.3209 37.7638 15.2522 37.7638 15.2522C37.7638 15.2522 37.5382 16.0512 38.3113 18.9825C39.0841 21.9141 40.3925 23.7292 40.3925 23.7292C40.3925 23.7292 41.2278 22.5001 43.3676 22.5132C44.1203 22.5178 47.7154 23.3535 47.4898 27.5164C47.2423 32.0654 43.2848 31.9999 43.275 31.9999C42.7696 31.9655 41.0787 32.3129 38.6332 29.7742C36.1652 27.2144 36.0243 25.9182 35.1429 24.2157C34.2613 22.5132 33.3191 18.3922 33.3191 18.3922L33.2648 18.125L33.1461 18.0902L33.0492 18.1008L32.9426 18.1143L32.0408 18.4724C32.0408 18.4724 31.9664 20.581 32.0408 20.6026C32.1155 20.6242 33.2648 20.9366 33.2547 22.0401C33.2425 23.3603 32.0731 23.3253 32.0731 23.3253C32.0731 23.3253 31.3326 23.3124 30.5052 23.0928C29.6778 22.8735 28.434 22.9781 28.434 22.9781C27.87 23.1742 27.1528 23.2418 27.0049 23.2538C26.877 23.2484 25.8813 23.1709 25.9096 22.1573C25.9419 21.0106 27.5 20.4523 27.5 20.4523L27.4897 14.3487C27.4897 14.3487 27.5 8.34909 27.4897 6.31255C25.3962 5.826 25.5274 4.345 25.5051 4.31023C25.4831 4.27544 25.4831 2.95518 26.5882 3.00117H26.7269L26.8227 3.01429C27.2926 3.13011 28.2923 3.96329 31.1814 3.99533L31.1814 3.99536ZM26.8227 3.01426L26.6522 3.00361L26.8227 3.01426ZM31.8899 7.13555V13.2498C31.8899 13.2498 33.0715 13.4453 34.7143 11.9865C35.2675 11.4956 35.8091 10.7593 35.8957 9.27642C35.9823 7.79295 35.2939 7.14622 34.5753 6.7399C33.8565 6.33412 32.9328 6.6249 32.9328 6.6249L32.7699 6.6813L32.6407 6.71635L32.492 6.76401L32.3432 6.8226L32.2121 6.89216L32.0954 6.94828L31.8899 7.13557V7.13555Z" fill="black"/>
<path d="M16.5651 3.00224C23.0391 3.15774 25.54 9.44751 25.4995 13.8535C25.4592 18.26 22.018 24.0712 16.4417 23.9993C10.8653 23.9281 7.42616 18.1542 7.5012 13.515C7.57677 8.87601 10.9275 2.86699 16.5651 3.00224ZM16.5089 6.47338C13.635 6.45257 13.7352 15.0991 16.5538 15.1879C19.2501 15.2719 19.681 6.49741 16.5089 6.47338Z" fill="black"/>
<path d="M95.8551 20.2656C95.8551 20.2656 94.5402 20.6327 94.5006 21.8557C94.4748 22.6512 95.2722 22.9117 95.2722 22.9117L95.4304 22.9699L95.6837 23L95.8527 22.9907L96.0841 22.9802L96.2549 22.9434L96.4602 22.9074L96.6426 22.8834L96.9595 22.8371L97.3237 22.8167L97.773 22.7977L98.2814 22.78L98.7792 22.7622L99.7969 22.7824L100.403 22.7814L101.095 22.7946L101.907 22.8231L102.718 22.8789L103.397 22.9072L104.148 22.949L104.693 22.9847L105.106 22.9675L105.275 22.9435C105.275 22.9435 105.665 22.9807 106.034 21.8222C106.09 21.6482 107.301 18.3608 107.301 18.3608C107.301 18.3608 107.613 17.0833 106.475 16.8984C105.337 16.7136 104.816 18.3801 104.2 18.8813C104.154 18.9183 103.08 20.143 102.227 20.1414C101.366 20.1394 99.9763 20.1173 99.9763 20.1173L100.031 15.0077L101.495 14.9923C101.495 14.9923 102.04 15.9086 102.864 15.897C103.688 15.8859 104.446 15.5204 104.494 14.7929C104.521 14.388 104.541 11.7407 104.541 11.7407C104.541 11.7407 104.572 10.5168 103.046 10.4277C102.272 10.383 101.826 10.8056 101.667 11.0489C101.659 11.0595 99.9812 11.0166 99.9812 11.0166L99.9762 7.84852L102.274 7.84554C102.274 7.84554 103.15 7.68715 104.557 9.14638C104.835 9.43251 105.472 10.5659 106.525 10.5062C107.58 10.4467 107.499 9.59407 107.499 9.59407L107.385 9.06597L107.234 8.61774L106.944 7.73395L106.807 7.29814L106.634 6.72693L106.473 6.17054L106.31 5.66703L106.184 5.23148L106.068 4.91891C106.068 4.91891 105.954 3.94336 104.832 4.06923C104.796 4.0727 104.018 4.13561 104.018 4.13561L103.363 4.15071L102.284 4.20967L101.446 4.23348L98.8885 4.18377L97.9802 4.12613L97.2407 4.04415L96.3697 4L95.786 4.02855C95.786 4.02855 94.8772 4.10761 94.8839 5.1342C94.8849 5.41743 95.55 5.91248 95.9085 6.35543C95.9478 6.40383 95.855 20.2656 95.855 20.2656" fill="black"/>
<path d="M87.9768 24.1435C87.9768 24.1435 87.032 23.5791 85.9789 23.5719C84.9261 23.565 82.1686 24.7324 82.14 27.9825C82.1109 31.2326 83.7265 31.9082 86.1105 31.9932C88.4949 32.0797 90.3732 31.3328 91.4097 30.0363C92.4459 28.7404 93.2526 26.6963 93.2949 24.9292C93.2949 24.9165 93.4564 14.9082 93.4564 14.9082C93.4564 14.9082 94.5448 14.3396 94.4986 13.2821C94.4518 12.225 93.8459 11.9264 93.4653 11.9193C93.0847 11.9121 92.6243 12.1626 92.6243 12.1626C92.6243 12.1626 91.5656 12.528 90.9057 12.4878C90.2458 12.4477 89.5482 12.2974 89.3351 12.2528C89.1374 12.2102 88.6396 12.0748 88.6396 12.0748L88.4756 12.0566L88.26 12.0269C88.26 12.0269 87.3824 12.0492 87.3798 13.1329C87.3757 14.2174 88.6209 14.8449 88.6209 14.8449L88.5746 17.7243C88.5746 17.7243 88.6382 18.4387 87.61 18.4599C86.5829 18.4814 85.9872 18.4296 85.0775 17.3839C84.1681 16.3381 84.0244 14.2227 84.0795 13.1266C84.1349 12.0302 84.5645 8.49665 87.3447 8.29162C88.5775 8.20163 89.6132 9.26637 89.6132 9.26637C89.6132 9.26637 90.6642 10.2463 91.3759 10.1506C92.0874 10.0548 92.7021 9.80713 92.7401 8.92925C92.7497 8.70882 92.7875 8.4328 92.3362 8.04312C92.2792 7.99471 91.6065 7.14653 91.9751 4.48566C92.1773 3.03014 90.5788 3.03426 90.4753 3.0172C90.3731 3.00015 89.8454 2.87905 88.5224 3.63832C88.4983 3.65067 88.1049 4.06101 86.2119 3.74481C86.1964 3.74224 83.2059 3.60199 80.9788 6.30773C80.4894 6.90243 78.7213 8.80211 78.5108 12.9936C78.3851 15.5004 79.3678 17.863 81.0134 19.87C81.4146 20.3574 83.3664 22.8842 87.9875 22.6354C88.0051 22.6334 87.9767 24.1435 87.9767 24.1435" fill="black"/>
<path d="M62.8543 20.177C62.8543 20.177 61.4882 20.6497 61.5001 21.778C61.5119 22.9058 62.4778 22.9063 62.4778 22.9063L62.6529 22.8914L62.9285 22.8238L63.117 22.7833C63.117 22.7833 65.1165 22.4887 66.2666 22.7964C66.2745 22.7984 66.4291 22.8259 66.4291 22.8259L66.6918 22.8794L66.8919 22.9321L67.1312 22.9745L67.3818 23L67.6206 22.9875C67.6206 22.9875 68.3619 22.839 68.3993 21.7935C68.4356 20.7477 67.5837 20.3958 67.5837 20.3958L67.5827 8.02943L67.6823 7.89365C67.6823 7.89365 68.2957 7.10695 69.3503 7.14715C70.4049 7.1879 71.0709 8.65319 71.0944 8.74904C71.1181 8.84409 71.8491 10.4732 71.8473 12.4558C71.8458 14.1525 71.0815 16.7165 71.0815 16.7165C71.0815 16.7165 70.6781 18.534 69.0886 21.0195C69.0825 21.028 68.9867 21.2102 68.9867 21.2102C68.9867 21.2102 68.7848 21.6428 68.7987 21.9822C68.8124 22.3214 68.9535 22.8919 69.667 22.8922C69.6785 22.8922 69.8789 22.8797 69.8789 22.8797L70.2177 22.8389L70.8314 22.7713L71.3466 22.7287L72.0366 22.7034H72.75L73.2399 22.7439L73.6417 22.7718L73.9552 22.7846L74.2316 22.8245L74.4317 22.8647L74.696 22.9201L74.9819 22.9481L75.247 22.9455L75.5229 22.9075C75.5229 22.9075 76.315 22.7552 76.3638 21.6434C76.4125 20.5322 75.5837 20.0551 75.2212 20.1933C75.2112 20.1969 74.9603 20.0423 73.9805 20.7209C73.976 20.723 73.8549 20.7886 73.8549 20.7886L73.704 20.8163H73.5532L73.4279 20.7764L73.3142 20.668L73.2397 20.532L73.2273 20.4217V20.2734L73.251 20.1502L73.3023 20.0573L73.39 19.934C73.39 19.934 76.0636 16.5263 76.4264 15.5362C76.7887 14.5455 77.3665 13.975 77.4924 11.519C77.6132 9.13127 76.2606 7.09514 76.2606 7.09514C76.2606 7.09514 74.7571 4.63513 72.8874 3.99833C71.0178 3.36208 71.3587 3.44247 70.0903 3.37485C69.2358 3.32789 67.6541 3.74334 66.7037 4.29677C66.6879 4.30765 66.5782 4.31141 66.5782 4.31141L66.4273 4.26932L66.1003 4.05263C66.1003 4.05263 64.2954 2.89907 63.2032 3.00715C62.1114 3.11468 61.5217 3.95866 61.5473 4.82655C61.5728 5.6939 62.0003 6.43824 62.8157 7.07857C62.8257 7.08726 62.8541 20.177 62.8541 20.177" fill="black"/>
<path d="M51.6474 23L51.2528 22.8776L50.8239 22.7852L50.4976 22.7184C50.4496 22.7079 50.0906 22.6339 49.5994 22.5931C49.0878 22.5504 48.4 22.5407 47.7644 22.6966L47.4919 22.7509L47.2542 22.7936L47.0925 22.8252L46.9075 22.8525H46.7621L46.5696 22.8319C46.5372 22.8209 46.4714 22.7919 46.4269 22.7549C46.3573 22.6966 46.2235 22.549 46.2235 22.1413C46.2235 21.8081 46.4309 21.4839 46.7319 21.2004C46.8743 21.0667 47.0188 20.9602 47.1297 20.8851C47.1851 20.8483 47.2311 20.8194 47.263 20.8C47.5516 20.6235 47.5535 20.3587 47.5535 20.3485C47.5733 19.8937 47.5637 17.5616 47.5637 17.5616L46.7977 17.4546L46.7629 17.4551C46.7008 17.4561 42.654 17.4983 42.5025 13.2191C42.4537 11.8388 43.1388 11.089 43.8726 10.6553C44.2469 10.4343 44.6297 10.3006 44.9234 10.2217C45.2294 10.1401 45.4479 10.1152 45.4503 10.1147C45.5552 10.0863 47.2515 9.41401 47.2515 9.41401C47.2515 9.41401 45.5536 9.04869 45.4069 8.98844C45.2431 8.92062 45.0238 8.80686 44.8051 8.6215C44.3829 8.26456 43.923 7.61282 43.9176 6.39068C43.9128 5.23825 44.4648 4.67649 45.0268 4.37224C45.318 4.21417 45.6149 4.12689 45.8412 4.07907C45.9531 4.055 46.0454 4.04124 46.1094 4.03341C46.1592 4.02693 46.2026 4.0153 46.2403 4.00018C46.2963 3.99816 46.3951 4.01393 46.4818 4.01555C46.6778 4.01909 46.8526 4.03124 46.9123 4.04499C47.5219 4.18307 47.7535 4.2171 47.7535 4.2171L48.3545 4.32627L48.8128 4.39383L49.36 4.47218L49.877 4.5184L50.5308 4.60568L51.0608 4.64052L51.9199 4.69645L52.6181 4.73993L53.2593 4.76345C53.2593 4.76345 54.195 4.76943 55.4064 4.70537C56.6288 4.64051 58.1371 4.5027 59.2784 4.21979C60.3554 3.95202 60.5072 4.42083 60.4997 4.84344C60.4888 5.49733 60.0527 6.19257 59.6511 6.33335C59.6511 6.33335 59.3322 6.6103 59.3282 6.94698L59.3237 7.37553L59.3117 8.90003L59.2793 13.5224L59.2338 20.4205L59.4921 20.7602L59.6766 20.9285L59.8407 21.0669L59.9743 21.189C59.9861 21.2014 60.0029 21.2192 60.0222 21.2444C60.045 21.2741 60.0742 21.3171 60.1028 21.3771C60.1577 21.4933 60.2203 21.6921 60.2115 22.0048C60.1925 22.703 59.8094 22.9499 59.69 22.9429C59.1789 22.9107 58.2309 22.704 58.2309 22.704L57.8767 22.6546L57.5113 22.6433H57.2021L56.8918 22.6538C56.8535 22.6553 56.566 22.6627 56.2214 22.6913C55.871 22.7205 55.3961 22.7754 55.0815 22.8883C55.0114 22.9129 54.8952 22.9313 54.8414 22.9383L54.636 22.9308L54.5257 22.9067C54.4861 22.8816 54.4079 22.8256 54.349 22.7597C54.2382 22.6346 54.0974 22.4014 54.0942 21.9707C54.0874 21.2568 55.0601 20.8256 55.1506 20.7904L55.4574 20.6718V17.743H51.3324V20.7845L51.6681 20.8896C51.7174 20.905 52.3976 21.1511 52.3516 21.8175C52.2887 22.7429 51.8124 22.9723 51.7733 22.9799C51.7195 22.9899 51.678 22.995 51.6451 22.9972L51.6471 22.9997L51.6474 23ZM54.3487 7.91197C53.9832 8.03789 53.5035 8.27486 53.0278 8.71989C52.0632 9.62184 51.1947 11.2979 51.2067 14.3667C51.2067 14.375 51.3259 14.8584 51.8161 14.8633L52.201 14.8648C52.5175 14.8651 52.9389 14.8648 53.3605 14.8638C54.2033 14.8623 55.5146 14.8576 55.5146 14.8576L55.487 7.75036C55.487 7.75036 54.7371 7.77736 54.3487 7.91167" fill="#FF8028"/>
<path d="M33.0033 3.75054C33.5951 3.63663 34.0383 3.52135 34.1267 3.4978L34.9648 3.33133L35.3806 3.27438L35.9256 3.22919C35.9256 3.22919 36.237 3.20018 36.6985 3.24645C37.1776 3.29436 37.807 3.42115 38.4293 3.7311C39.6313 4.32937 40.9012 5.65266 40.8966 8.74064C40.8931 11.5009 37.0881 14.2819 37.0105 14.3378L36.881 14.4306C36.881 14.4306 36.5398 15.473 37.3652 18.6163C38.1571 21.6312 39.4975 23.504 39.5175 23.5319L39.8919 24.0538C39.8919 24.0538 40.3153 23.4709 40.3886 23.395C40.4775 23.3036 40.6203 23.1743 40.823 23.0437C41.2261 22.7839 41.8809 22.5074 42.8547 22.5137C43.526 22.5172 46.6905 23.2795 46.491 26.9876C46.3774 29.0724 45.4385 30.0417 44.5593 30.5192C44.1062 30.7653 43.655 30.8864 43.314 30.9452C43.0302 30.9948 42.829 30.9997 42.7782 31C42.6493 30.9934 42.4524 31.0063 42.1932 30.9948C41.9555 30.9844 41.6581 30.9491 41.307 30.845C40.6059 30.6361 39.644 30.1372 38.4745 28.9182C37.2736 27.6675 36.6528 26.7404 36.2251 25.9299C35.7742 25.0745 35.5198 24.3257 35.0818 23.476C34.2407 21.8455 33.3164 17.8031 33.3102 17.7746L33.1988 17.2237L32.717 17.0824L32.5289 17.1035L32.3623 17.1243L31.1157 17.6215C31.1157 17.6215 31.0849 18.4851 31.0757 19.0196C31.0711 19.2914 31.069 19.5633 31.0725 19.7695C31.0744 19.8842 31.0782 19.9809 31.0838 20.0493C31.1176 20.4425 31.3893 20.5666 31.4504 20.5844C31.465 20.5885 31.5315 20.6071 31.6229 20.6454C31.7167 20.6854 31.8316 20.7437 31.9403 20.8248C32.1544 20.9838 32.3153 21.2007 32.3121 21.535C32.305 22.3367 31.6586 22.3263 31.6194 22.3249C31.6194 22.3249 30.93 22.3121 30.1627 22.1078C29.6934 21.9827 29.1308 21.9545 28.7083 21.9528C28.273 21.9513 27.8896 21.984 27.8896 21.984L27.8358 22.0032C27.3638 22.1678 26.749 22.2349 26.5565 22.2521C26.4884 22.2461 26.3235 22.2225 26.1802 22.142C26.048 22.0673 25.9358 21.9548 25.9436 21.6719C25.9642 20.9356 27.0956 20.4661 27.2067 20.4261L27.5282 20.31L27.5174 13.8484C27.5174 13.8484 27.5276 7.84715 27.5174 5.80949L27.5155 5.40973L27.1462 5.32376C26.2159 5.10636 25.8506 4.69018 25.6952 4.39721C25.6125 4.24141 25.5762 4.09601 25.5595 3.98813C25.5511 3.9331 25.5476 3.88737 25.5457 3.85506C25.5397 3.75074 25.5192 3.67135 25.5 3.61713C25.5105 3.52321 25.5757 3.43176 25.62 3.32415C25.6976 3.13495 25.8287 2.98791 26.1367 3.00078H26.2529C26.2859 3.01062 26.3595 3.03174 26.4016 3.05034C26.4765 3.08293 26.5617 3.12371 26.6601 3.16943C26.8758 3.26965 27.1492 3.39232 27.5017 3.51225C28.2162 3.75512 29.2319 3.97854 30.7156 3.99525C31.4732 4.00401 32.3329 3.87942 33.0034 3.75046L33.0033 3.75054ZM30.953 13.168C30.953 13.168 31.4575 13.2636 31.6505 13.2578C31.81 13.2523 32.0431 13.2285 32.3356 13.1502C32.9066 12.9972 33.6738 12.645 34.5444 11.8683C35.1846 11.2982 35.7934 10.4393 35.8883 8.80656C35.9891 7.07117 35.1489 6.26646 34.3249 5.79907C33.8561 5.53293 33.3451 5.5061 32.9839 5.53047C32.603 5.55701 32.3232 5.64712 32.3232 5.64712L32.1699 5.70078L32.0466 5.73393L31.8741 5.79006L31.6878 5.86317L31.5418 5.94094L31.3721 6.02361L30.953 6.4064V13.168V13.168Z" fill="#FF8028"/>
<path d="M24.4995 14.3488C24.4613 18.5722 21.1664 24.0668 15.9471 23.9994C10.7201 23.9325 7.42934 18.4678 7.50115 14.0237C7.57322 9.53775 10.7974 3.8753 16.0546 4.00209C22.1319 4.14832 24.5386 10.0708 24.4995 14.3488ZM13.4512 11.2959C13.4687 13.3784 14.1654 16.1201 16.04 16.1795C19.6573 16.2925 19.4619 6.51134 16.0117 6.48516C14.0837 6.47088 13.4343 9.22587 13.4512 11.2959" fill="#FF8028"/>
<path d="M62.8316 13.1304L62.8191 8.62961L62.8136 7.14446L62.8111 6.72615C62.8087 6.36077 62.6315 6.19028 62.6294 6.18839C61.8961 5.6099 61.5669 4.9869 61.5472 4.31477C61.5299 3.7219 61.9228 3.09076 62.7784 3.00552C63.683 2.91567 65.334 3.95156 65.384 3.9836L65.7619 4.23443L66.065 4.32019C66.065 4.32019 66.4049 4.25994 66.4494 4.22899C67.3344 3.71159 68.8128 3.3329 69.5647 3.3747C69.8777 3.39127 70.0911 3.39889 70.2643 3.41083C70.4151 3.42114 70.5306 3.43445 70.6621 3.46349C70.9591 3.52945 71.3278 3.66627 72.2322 3.97546C73.9133 4.55096 75.3328 6.85429 75.3482 6.879C75.3482 6.879 75.6641 7.36056 75.9624 8.11032C76.2683 8.87801 76.5482 9.90387 76.493 10.9935C76.4333 12.1784 76.2659 12.8823 76.0815 13.3992C75.8775 13.9709 75.6442 14.3601 75.464 14.8542C75.1392 15.7454 72.553 19.0713 72.5142 19.1213L72.4029 19.2773L72.2984 19.4685L72.2502 19.7215L72.2505 19.9489L72.2764 20.1922L72.4367 20.4859L72.68 20.7183L72.9655 20.8105H73.2216L73.477 20.7636L73.6847 20.6496C74.149 20.3266 74.4258 20.2145 74.5405 20.1854C74.568 20.1789 74.5853 20.174 74.5971 20.1748C74.7718 20.1892 74.8425 20.1602 74.8532 20.1558C74.9132 20.1757 75.03 20.2413 75.1055 20.3157C75.2492 20.4569 75.3886 20.7107 75.3708 21.1182C75.3524 21.53 75.2071 21.7146 75.1044 21.8039C75.0465 21.8544 74.9897 21.885 74.9488 21.9021L74.6812 21.9474L74.4727 21.949L74.2336 21.9259L73.9921 21.8754L73.7805 21.833L73.472 21.7885L73.1381 21.7739L72.7499 21.7467L72.251 21.706L71.5156 21.7055L70.8122 21.7315L70.2836 21.775L69.6661 21.8437L69.339 21.8827L69.1554 21.8936C68.834 21.889 68.7707 21.7022 68.7607 21.4585C68.7531 21.2684 68.8909 20.9495 68.8998 20.931C68.9183 20.893 68.9605 20.8105 68.9637 20.8061C70.5031 18.3874 70.9643 16.5665 71.0146 16.352C71.0458 16.2467 71.2228 15.6327 71.3996 14.8392C71.5916 13.9795 71.7932 12.8673 71.7945 11.9576C71.7955 10.9033 71.6026 9.95103 71.4098 9.25446C71.2278 8.5959 71.0416 8.17106 71.03 8.12409C70.9978 7.99162 70.2462 6.20787 68.8673 6.15466C68.2296 6.13023 67.7257 6.35772 67.3857 6.58764C67.215 6.7022 67.084 6.81893 66.9934 6.90878C66.8926 7.00922 66.8368 7.08305 66.8368 7.08305L66.6343 7.3594L66.6348 20.2184C66.6348 20.2184 66.9557 20.3693 66.996 20.3951C67.0502 20.4291 67.1225 20.4817 67.1932 20.5561C67.3275 20.6981 67.4593 20.918 67.4467 21.2725C67.4331 21.6517 67.3016 21.8176 67.2131 21.8969C67.162 21.9419 67.1117 21.9693 67.0759 21.9848L66.8978 22L66.7021 21.9796L66.4979 21.9433L66.3041 21.8922L66.0262 21.8352L65.8761 21.8078C65.236 21.6397 64.4037 21.6416 63.7647 21.6764C63.1023 21.713 62.5744 21.792 62.5744 21.792L62.3675 21.8363L62.1192 21.8974L62.0013 21.9074C61.917 21.9034 61.5061 21.8539 61.5 21.2703C61.4924 20.5661 62.4329 20.1809 62.529 20.1475L62.848 20.0368L62.8318 13.1303L62.8316 13.1304Z" fill="#FF8028"/>
<path d="M87.9492 23.8964C87.9517 23.7054 87.9537 23.5144 87.9537 23.371C87.9542 22.816 87.4649 22.6327 87.4476 22.6344C85.2344 22.7538 83.694 22.2055 82.6586 21.589C82.1384 21.2791 81.7429 20.9493 81.4552 20.6691C81.3116 20.5296 81.1939 20.4018 81.1009 20.295C81.0053 20.1847 80.9347 20.096 80.8865 20.0377C79.3051 18.0999 78.3933 15.8608 78.51 13.5195C78.6115 11.4983 79.0848 10.0461 79.5816 9.03483C79.8304 8.52837 80.0866 8.12899 80.3098 7.82071C80.5392 7.5039 80.7336 7.28178 80.8516 7.13782C81.8864 5.87553 83.0981 5.27658 84.0573 4.9928C84.5349 4.85132 84.9483 4.78884 85.2437 4.76214C85.3875 4.74864 85.5026 4.74426 85.5822 4.74287C85.6227 4.74287 85.6456 4.73927 85.6462 4.73979C86.6179 4.90246 87.2406 4.88483 87.6439 4.80721C87.8466 4.76785 87.9971 4.71363 88.1082 4.65721C88.1801 4.62033 88.219 4.5873 88.2248 4.58427C88.8532 4.22149 89.2773 4.07864 89.5282 4.02799C89.6411 4.00543 89.7261 3.99883 89.7876 4.00017C89.8406 4.0012 89.8726 4.00872 89.8886 4.0117C89.9147 4.01583 90.0353 4.01887 90.1981 4.04421C90.3353 4.06538 90.4919 4.10311 90.6315 4.16917C90.877 4.2856 91.0534 4.46039 90.991 4.90932C90.6149 7.6376 91.2699 8.72042 91.5224 8.93539C91.6985 9.08898 91.7347 9.18037 91.7438 9.209C91.7489 9.22553 91.7515 9.24314 91.7523 9.269C91.7538 9.31716 91.7503 9.36204 91.7483 9.40416C91.7283 9.8718 91.4798 10.0576 90.7979 10.1501C90.3531 10.2098 89.5151 9.48452 89.412 9.39094C89.3865 9.36508 89.3164 9.29652 89.2088 9.20486C89.0796 9.09476 88.8932 8.94944 88.6638 8.80768C88.2123 8.52776 87.5526 8.23324 86.8094 8.28801C85.2006 8.40692 84.2811 9.51068 83.7766 10.6582C83.279 11.7906 83.153 13.0234 83.1242 13.5981C83.0694 14.6953 83.1919 17.0126 84.243 18.2265C85.2709 19.4144 86.0159 19.4857 87.1149 19.4632C87.7337 19.4502 88.1383 19.2179 88.3578 18.8626C88.459 18.6993 88.5024 18.5369 88.5205 18.4158C88.5338 18.3231 88.5338 18.2507 88.5322 18.2105L88.5836 15.0275L88.3104 14.889C88.2427 14.8546 87.3397 14.3485 87.3421 13.6342C87.3431 13.2709 87.4742 13.1561 87.5549 13.1038C87.6093 13.0686 87.6673 13.0487 87.7142 13.0377L87.914 13.0548L88.0493 13.0702C88.1663 13.1018 88.561 13.2081 88.7333 13.2452C88.9542 13.2917 89.6779 13.4473 90.3611 13.4891C90.7604 13.5136 91.2436 13.4173 91.5952 13.3289C91.9619 13.2378 92.2773 13.128 92.2773 13.128L92.3101 13.1101C92.3221 13.1035 92.6814 12.9163 92.9283 12.921C93.0732 12.9236 93.4653 13.025 93.4991 13.8051C93.5292 14.4916 92.7717 14.9301 92.7237 14.9556L92.4662 15.0908L92.3002 25.422C92.26 27.0611 91.5038 28.9945 90.5353 30.2111C89.6272 31.352 87.918 32.0762 85.6286 31.9936C83.3735 31.9124 82.0995 31.3426 82.1245 28.4894C82.1499 25.6141 84.5847 24.5699 85.4789 24.5762C85.9309 24.5788 86.3731 24.7036 86.7116 24.8346C87.0353 24.9601 87.9214 25.4859 87.9214 25.4859C87.9214 25.4859 87.9438 24.2753 87.9492 23.8966" fill="#FF8028"/>
<path d="M96.0007 12.8323C96.0104 11.0993 96.019 9.3644 96.0224 8.0598C96.0245 7.40697 96.0245 6.86158 96.0234 6.47801C96.0224 6.28372 96.0219 6.13088 96.0198 6.02528C96.0151 5.7159 95.9028 5.56199 95.8956 5.55354C95.7883 5.43106 95.6597 5.30515 95.5258 5.18028C95.4055 5.06783 95.2805 4.95643 95.1676 4.85031C95.0571 4.74551 94.9773 4.66341 94.9279 4.60058C94.9376 4.0552 95.4088 4.02827 95.4349 4.02669L96.0223 4L96.9222 4.04248L97.7143 4.12405L98.7115 4.18266L101.481 4.23282L102.398 4.20852L103.565 4.14912L104.268 4.13459L105.163 4.06701C105.607 4.02028 105.78 4.17024 105.854 4.2621C105.901 4.32176 105.93 4.38643 105.948 4.43816C105.959 4.47171 105.984 4.58628 105.984 4.58628L106.113 4.90727L106.245 5.33123L106.422 5.84123L106.592 6.38478L106.78 6.96052L106.929 7.40084L107.242 8.28861L107.396 8.71072L107.5 9.16161C107.495 9.19886 107.482 9.26271 107.459 9.30548C107.431 9.35695 107.336 9.50821 106.913 9.53065C106.529 9.5507 106.196 9.37332 105.893 9.10353C105.743 8.97022 105.612 8.82371 105.493 8.68459L105.326 8.48608C105.276 8.428 105.22 8.36254 105.162 8.30789C104.363 7.53838 103.689 7.17144 103.185 7.00249C102.933 6.91776 102.728 6.88371 102.575 6.87315C102.464 6.86525 102.384 6.86968 102.337 6.87363L99.4113 6.87808L99.4191 10.9928C99.4191 10.9928 100.344 11.0147 100.797 11.0242L101.423 11.0363L101.634 11.0383C101.945 11.0393 102.1 10.8506 102.107 10.8422C102.198 10.7126 102.536 10.3815 103.173 10.4159C103.852 10.4523 104.1 10.7081 104.203 10.8757C104.264 10.9729 104.295 11.0703 104.308 11.1439C104.319 11.197 104.32 11.236 104.32 11.236C104.32 11.236 104.299 13.8574 104.27 14.2576C104.249 14.5567 103.861 14.9004 102.998 14.9115C102.415 14.9191 101.964 14.2634 101.943 14.232L101.798 14.0052L99.4775 14.0279L99.4072 20.0818C99.4072 20.0818 101.389 20.1111 102.318 20.113C102.954 20.1145 103.588 19.7115 104 19.3995C104.219 19.2337 104.409 19.0661 104.549 18.938C104.617 18.8747 104.672 18.8213 104.712 18.7823C104.941 18.6096 105.16 18.3322 105.322 18.1112C105.482 17.8945 105.646 17.6524 105.829 17.4318C106.186 16.9988 106.475 16.8196 106.812 16.8705C107.419 16.9621 107.347 17.535 107.308 17.7076C107.176 18.0405 106.007 20.9881 105.95 21.1528C105.767 21.6879 105.599 21.8817 105.532 21.9406C105.576 21.9445 105.639 21.9477 105.639 21.9477L105.531 21.9497L105.372 21.9711L104.975 21.9861L104.411 21.9513L103.598 21.9093L102.866 21.881L101.998 21.8256L101.114 21.7968L100.362 21.7834L99.7059 21.7843L98.6098 21.7651L98.0611 21.7822L97.5137 21.8002L97.0261 21.8189L96.611 21.8413L96.2501 21.8899L96.0506 21.9142L95.812 21.9533L95.6572 21.9839L95.4441 21.9929L95.2999 22L95.1204 21.9802L94.9935 21.9371C94.9426 21.9218 94.4864 21.7492 94.5003 21.3588C94.5289 20.5367 95.5289 20.2379 95.5928 20.2213L95.9534 20.1276C95.9534 20.1276 95.9809 16.298 96.0006 12.8324" fill="#FF8028"/>
</svg>
